Coordinates
version=1
nRows=13
nColumns=40
inDegrees=yes

Units are S.I. units (second, meters, Newtons, ...)
Angles are in degrees.

endheader
time	pelvis_tilt	pelvis_list	pelvis_rotation	pelvis_tx	pelvis_ty	pelvis_tz	hip_flexion_r	hip_adduction_r	hip_rotation_r	knee_angle_r	knee_angle_r_beta	ankle_angle_r	subtalar_angle_r	mtp_angle_r	hip_flexion_l	hip_adduction_l	hip_rotation_l	knee_angle_l	knee_angle_l_beta	ankle_angle_l	subtalar_angle_l	mtp_angle_l	lumbar_extension	lumbar_bending	lumbar_rotation	arm_flex_r	arm_add_r	arm_rot_r	elbow_flex_r	pro_sup_r	wrist_flex_r	wrist_dev_r	arm_flex_l	arm_add_l	arm_rot_l	elbow_flex_l	pro_sup_l	wrist_flex_l	wrist_dev_l
     52.61500000	     -5.23319856	     -6.07776302	    -10.20904212	      0.88616236	      0.93311930	      0.45985019	     25.17202520	     -0.30619209	     -3.65798122	     31.51796266	     31.51796266	      6.99386441	     -5.08396400	     -2.08522010	      6.14812450	     -4.80377106	    -10.46603758	     17.67976197	     17.67976197	     18.20285291	    -12.72364579	      4.54799892	     -9.03284901	      8.43778246	      0.70186181	    -14.98185844	    -10.71327847	    -15.72300683	     22.55009263	     46.74299663	      0.00000000	      0.00000000	     29.69559755	    -20.78630668	     -7.01271803	     60.42336025	     47.48921682	      0.00000000	      0.00000000
     52.63350000	     -5.28505125	     -5.75579743	    -10.72538849	      0.88558896	      0.93265722	      0.46238434	     24.60659343	     -0.29235807	     -4.25197356	     28.25207380	     28.25207380	      7.44737951	     -2.17678119	     -0.77482301	      4.95979437	     -4.49173599	    -11.51322027	     16.04985733	     16.04985733	     17.20037981	    -11.99697379	      1.61135065	     -9.07237283	      8.10768512	      0.34158371	    -16.20439075	    -10.69038614	    -15.67659098	     24.35752154	     46.65238998	      0.00000000	      0.00000000	     29.46756976	    -21.15879888	     -9.50845854	     64.23930776	     47.72473766	      0.00000000	      0.00000000
     52.65200000	     -5.43603372	     -5.50105844	    -11.15392774	      0.88502051	      0.93183759	      0.46508955	     24.05814162	     -0.07365880	     -4.70761687	     25.18023593	     25.18023593	      7.36192872	     -0.25254338	     -0.08767020	      4.10476934	     -4.25653591	    -12.17350982	     14.90981418	     14.90981418	     17.24575920	    -11.35238224	      1.26928494	     -8.88425393	      7.91355263	      0.49638023	    -16.88198821	    -10.63858665	    -15.62285571	     24.23717126	     46.64736547	      0.00000000	      0.00000000	     30.35884963	    -21.40247039	     -9.89182713	     65.25845538	     47.77568859	      0.00000000	      0.00000000
     52.67050000	     -5.47976824	     -5.13792441	    -11.53239273	      0.88465863	      0.93072562	      0.46787100	     23.60082745	     -0.05252027	     -5.31795220	     22.89972898	     22.89972898	      7.43555272	      1.69543469	      0.58659832	      3.19136442	     -3.90337105	    -12.95414437	     13.83670973	     13.83670973	     17.20890180	    -10.51749009	      0.42272207	     -8.82807920	      7.56600665	      0.70061921	    -17.40189601	    -10.54255511	    -15.57370957	     24.42668065	     46.63024681	      0.00000000	      0.00000000	     31.12239530	    -21.51022320	    -10.59649979	     66.75424845	     47.85395511	      0.00000000	      0.00000000
     52.68900000	     -5.76531932	     -4.67115718	    -11.82060901	      0.88411404	      0.92897343	      0.47076422	     23.63823558	     -0.02815608	     -5.55797297	     21.37281292	     21.37281292	      7.32310257	      2.46888478	      1.00593523	      2.87029389	     -3.52405612	    -13.37245372	     13.30381639	     13.30381639	     17.35063597	    -10.16437116	     -0.01479851	     -8.43169458	      7.15103649	      0.72238682	    -17.55952154	    -10.37980552	    -15.54065163	     24.54221063	     46.62038050	      0.00000000	      0.00000000	     31.87106929	    -21.70504579	    -10.97712441	     67.56842256	     47.89766266	      0.00000000	      0.00000000
     52.70750000	     -5.76366689	     -4.44681764	    -12.05959421	      0.88419672	      0.92762962	      0.47378753	     23.28918734	      0.06025377	     -6.22223879	     20.30558259	     20.30558259	      7.47995941	      3.71755953	      1.55043508	      1.97308618	     -3.34637904	    -14.10729378	     12.36283553	     12.36283553	     16.67393293	     -9.57057652	     -2.70824562	     -8.50405256	      7.01148214	      0.47559690	    -17.61467940	    -10.48774075	    -15.19838393	     25.41227415	     46.55617344	      0.00000000	      0.00000000	     31.55706005	    -21.53950655	    -13.34313134	     70.38733512	     48.09440407	      0.00000000	      0.00000000
     52.72600000	     -5.96477983	     -4.11457027	    -12.19246785	      0.88406308	      0.92594281	      0.47686224	     23.37927982	      0.11497082	     -6.36257925	     19.91067430	     19.91067430	      7.48830669	      3.73762807	      1.57674540	      1.69296885	     -3.12115942	    -14.22973585	     12.13863876	     12.13863876	     16.91061246	     -9.48592421	     -2.86238368	     -8.25330271	      6.76128566	      0.57220952	    -17.37287439	    -10.46038898	    -15.13945177	     25.47307640	     46.55106028	      0.00000000	      0.00000000	     32.19094271	    -21.60169152	    -13.46915454	     70.80068764	     48.11372925	      0.00000000	      0.00000000
     52.74450000	     -5.97765922	     -3.88333839	    -12.27606326	      0.88443827	      0.92465826	      0.48007470	     23.16372729	      0.21085071	     -6.36745434	     19.68594751	     19.68594751	      7.01564346	      3.32025118	     -0.09934554	      1.08171927	     -2.98117364	    -14.59075568	     11.74073421	     11.74073421	     16.87891236	     -9.06410935	     -3.80633926	     -8.23042905	      6.62378482	      0.53299559	    -16.86452547	    -10.56072457	    -14.34161481	     25.32042199	     46.50550026	      0.00000000	      0.00000000	     32.06411115	    -21.16891595	    -15.05482905	     72.49465192	     48.22646776	      0.00000000	      0.00000000
     52.76300000	     -6.11537946	     -3.72285147	    -12.24206186	      0.88487205	      0.92343438	      0.48335770	     23.11706828	      0.30786233	     -6.48888685	     19.86108639	     19.86108639	      7.17637738	      3.04756545	     -0.22361358	      0.79665284	     -2.97775067	    -14.54181071	     11.73318646	     11.73318646	     17.12700439	     -9.06798250	     -3.88584019	     -8.05933690	      6.60073549	      0.67047725	    -16.38551403	    -10.62672304	    -14.30952685	     25.47303661	     46.50108523	      0.00000000	      0.00000000	     32.29110422	    -21.03375829	    -15.04875334	     72.65586043	     48.22952884	      0.00000000	      0.00000000
     52.78150000	     -6.15356152	     -3.53686202	    -12.15787407	      0.88542730	      0.92236789	      0.48690226	     23.11828887	      0.47782529	     -5.78860554	     20.42033515	     20.42033515	      6.69844817	      1.09905436	     -2.23459631	      0.53113938	     -3.02139621	    -14.76835584	     12.00799814	     12.00799814	     17.64612048	     -8.55338282	     -3.54227814	     -8.02664433	      6.48183124	      0.61454766	    -15.58594714	    -10.77136448	    -13.69450169	     25.27142843	     46.47683983	      0.00000000	      0.00000000	     32.14537978	    -20.52178135	    -16.33381639	     73.79594737	     48.31105945	      0.00000000	      0.00000000
     52.80000000	     -6.18762057	     -3.42404777	    -11.96699189	      0.88621727	      0.92160601	      0.49044438	     23.10419851	      0.55483704	     -5.56340934	     21.21567848	     21.21567848	      6.98278529	      0.14252532	     -2.53827282	      0.22949182	     -3.10896837	    -14.60161421	     12.20616473	     12.20616473	     17.84525266	     -8.56165228	     -3.48579577	     -7.98920041	      6.45995778	      0.77508730	    -14.98672264	    -10.89561696	    -13.61459068	     25.41081982	     46.47148479	      0.00000000	      0.00000000	     32.16462741	    -20.16683061	    -16.33990005	     73.95786938	     48.31070649	      0.00000000	      0.00000000
     52.81850000	     -6.27658719	     -3.40674614	    -11.70366476	      0.88712510	      0.92113153	      0.49420844	     22.97459711	      0.85156939	     -4.92219361	     21.76557497	     21.76557497	      7.00881048	     -1.69433162	     -2.95406435	      0.07450829	     -3.38936214	    -14.51488498	     12.63919629	     12.63919629	     18.30488673	     -8.28781242	     -2.81974217	     -7.88752486	      6.52901909	      0.71490083	    -14.16014288	    -11.08421132	    -13.33067655	     25.42269762	     46.46194427	      0.00000000	      0.00000000	     31.81640522	    -19.67474284	    -16.85732765	     74.24755577	     48.33255158	      0.00000000	      0.00000000
     52.83700000	     -6.29802977	     -3.39333893	    -11.33018553	      0.88829056	      0.92100279	      0.49787965	     22.69119000	      0.93142185	     -5.01095677	     22.26772791	     22.26772791	      7.33924481	     -2.16681096	     -3.11298453	     -0.25923765	     -3.61804083	    -14.25732694	     12.81483337	     12.81483337	     18.32673560	     -8.20475353	     -2.78098348	     -7.84203059	      6.60416969	      0.79788821	    -13.46141535	    -11.25702292	    -13.31334593	     25.65747762	     46.45765127	      0.00000000	      0.00000000	     31.46231521	    -19.14685945	    -16.71003868	     74.14210445	     48.31661316	      0.00000000	      0.00000000
